<svg id="Capa_1" enable-background="new 0 0 512 512" height="512" viewBox="0 0 512 512" width="512" xmlns="http://www.w3.org/2000/svg"><g><path d="m363.355 0h-214.71c-2.895 0-5.674.497-8.256 1.409l-8.214 23.365v455.82c0 13.682 11.092 24.774 24.774 24.774h206.405l23.364-9.884c.913-2.583 1.41-5.363 1.41-8.258v-462.452c.001-13.682-11.091-24.774-24.773-24.774z" fill="#615260"/><path d="m363.355 495.484-222.968-470.71.002-23.365c-9.6 3.413-16.518 12.594-16.518 23.365v462.452c0 13.682 11.092 24.774 24.774 24.774h214.71c10.771 0 19.952-6.916 23.364-16.516z" fill="#4e3d4d"/><path d="m363.355 16.516h-42.49c-3.451 0-6.814 1.973-7.909 5.246-2.193 6.55-8.378 11.27-15.666 11.27h-82.58c-7.288 0-13.473-4.72-15.666-11.27-1.096-3.273-4.458-5.246-7.909-5.246h-42.49c-4.561 0-8.258 3.697-8.258 8.258v462.452c0 4.561 3.697 8.258 8.258 8.258h8.258l16.516-17.048h165.161l16.516 17.048h8.258c4.561 0 8.258-3.697 8.258-8.258v-462.452c.001-4.561-3.696-8.258-8.257-8.258z" fill="#eceaec"/><path d="m330.322 49.548h-148.645c-13.682 0-24.774 11.092-24.774 24.774v66.065l46.077 86.538-46.077 95.139v132.129h198.193v-132.128l-36.569-92.533 36.569-89.145v-66.065c.001-13.682-11.091-24.774-24.774-24.774z" fill="#fff"/><path d="m346.839 132.129h-181.678c-4.561 0-8.258 3.697-8.258 8.258v124.579l198.193 50.257v-174.836c.001-4.561-3.697-8.258-8.257-8.258z" fill="#b8ddff"/><path d="m305.548 313.806h-99.097c-18.243 0-33.032-14.789-33.032-33.032v-99.097c0-18.243 14.789-33.032 33.032-33.032h99.097c18.243 0 33.032 14.789 33.032 33.032v99.097c.001 18.243-14.788 33.032-33.032 33.032z" fill="#d5eaff"/><path d="m335.215 295.341-65.61 16.833 33.818 18.149h43.416c4.561 0 8.258-3.698 8.258-8.258v-6.841z" fill="#3ec2a3"/><circle cx="256" cy="82.581" fill="#9ae59c" r="16.516"/><circle cx="322.064" cy="82.581" fill="#b8ddff" r="16.516"/><circle cx="189.935" cy="82.581" fill="#ff646f" r="16.516"/><path d="m304.84 264.966c-6.45-6.45-16.907-6.45-23.357 0l-21.708 21.708-86.356-38.224-16.516 16.516v57.098c0 4.561 3.697 8.258 8.258 8.258h138.262l-16.516-16.516h18.641c13.029 0 24.29-7.508 29.666-18.465z" fill="#6fd6a2"/><circle cx="256" cy="189.935" fill="#fff" r="24.774"/><path d="m176.807 406.336c2.924 2.103 6.817 2.103 9.741 0 7.216-5.19 19.904-15.827 19.904-26.465 0-8.209-6.655-14.865-14.865-14.865-3.824 0-7.276 1.485-9.91 3.858-2.634-2.373-6.085-3.858-9.91-3.858-8.209 0-14.865 6.655-14.865 14.865.001 10.638 12.689 21.275 19.905 26.465z" fill="#ff646f"/><g><path d="m289.032 381.524h-57.806c-4.565 0-8.258-3.694-8.258-8.258 0-4.565 3.694-8.258 8.258-8.258h57.806c4.565 0 8.258 3.694 8.258 8.258 0 4.565-3.693 8.258-8.258 8.258z" fill="#887f88"/></g><g><path d="m330.323 414.556h-99.097c-4.565 0-8.258-3.694-8.258-8.258 0-4.565 3.694-8.258 8.258-8.258h99.097c4.565 0 8.258 3.694 8.258 8.258 0 4.565-3.694 8.258-8.258 8.258z" fill="#c9c5c9"/></g><path d="m209.872 236.063c-6.45-6.45-16.907-6.45-23.357 0l-13.096 12.387v32.324c0 18.243 14.789 33.032 33.032 33.032h80.455z" fill="#9ae59c"/><path d="m346.839 445.935h-181.678c-4.561 0-8.258 3.697-8.258 8.258v41.29h16.516l87.335-14.007 77.826 14.007h16.516v-41.29c.001-4.56-3.696-8.258-8.257-8.258z" fill="#b8ddff"/><path d="m338.581 495.484c0-18.243-14.789-33.032-33.032-33.032h-99.097c-18.243 0-33.032 14.789-33.032 33.032z" fill="#d5eaff"/></g></svg>