<?xml version="1.0" encoding="utf-8"?>
<!-- Generator: Adobe Illustrator 19.2.1, SVG Export Plug-In . SVG Version: 6.00 Build 0)  -->
<svg xmlns="http://www.w3.org/2000/svg" xmlns:xlink="http://www.w3.org/1999/xlink" version="1.1" id="Layer" x="0px" y="0px" width="512" height="512" viewBox="0 0 64 64" enable-background="new 0 0 64 64" xml:space="preserve">
<path d="M20,55h24c0.379,0,0.725-0.214,0.895-0.553l4-8C48.964,46.309,49,46.155,49,46V34V10c0-0.552-0.447-1-1-1h-4  c-2.757,0-5,2.243-5,5v8.026C38.162,21.391,37.13,21,36,21c-1.641,0-3.088,0.806-4,2.031C31.088,21.806,29.641,21,28,21  s-3.088,0.806-4,2.031C23.088,21.806,21.641,21,20,21c-2.757,0-5,2.243-5,5v20c0,0.155,0.036,0.309,0.105,0.447l4,8  C19.275,54.786,19.621,55,20,55z M41,14c0-1.654,1.346-3,3-3h3v22h-6V14z M36,23c1.654,0,3,1.346,3,3v7h-6v-7  C33,24.346,34.346,23,36,23z M28,23c1.654,0,3,1.346,3,3v8c0,1.654-1.346,3-3,3s-3-1.346-3-3v-8C25,24.346,26.346,23,28,23z M17,26  c0-1.654,1.346-3,3-3s3,1.346,3,3v8c0,1.654-1.346,3-3,3s-3-1.346-3-3V26z M17,37.974C17.838,38.609,18.87,39,20,39  c1.641,0,3.088-0.806,4-2.031C24.912,38.194,26.359,39,28,39c1.13,0,2.162-0.391,3-1.026V38c0,2.154,1.377,3.977,3.29,4.679  C33.497,43.565,33,44.721,33,46c0,0.553,0.447,1,1,1s1-0.447,1-1c0-1.654,1.346-3,3-3h4c0.553,0,1-0.447,1-1s-0.447-1-1-1h-6  c-1.654,0-3-1.346-3-3v-3h14v10.764L43.382,53H20.618L17,45.764V37.974z"/>
</svg>
