<svg height="511pt" viewBox="0 -6 511.99317 511" width="511pt" xmlns="http://www.w3.org/2000/svg"><path d="m215.453125 289.023438 144.265625 80.148437 152.273438-368.675781zm0 0"/><path d="m150.394531 199.347656 301.636719-192.539062-422.992188 167.746094 80.222657 51.046874zm0 0"/><path d="m191.667969 288.605469c.09375-.328125.183593-.628907.3125-.949219.472656-1.164062 1.089843-2.265625 2.003906-3.148438l273.015625-265.636718-346.355469 221.082031 57.367188 136.25 13.3125-86.550781c.0625-.375.246093-.695313.34375-1.046875zm0 0"/><path d="m9.109375 354.773438c2.328125 0 4.660156-.890626 6.4375-2.667969l63.738281-63.738281c3.5625-3.5625 3.5625-9.316407 0-12.875-3.558594-3.5625-9.3125-3.5625-12.875 0l-63.738281 63.738281c-3.5625 3.5625-3.5625 9.316406 0 12.875 1.773437 1.777343 4.105469 2.667969 6.4375 2.667969zm0 0"/><path d="m20.882812 466.710938-18.210937 18.214843c-3.5625 3.558594-3.5625 9.3125 0 12.875 1.773437 1.773438 4.105469 2.667969 6.4375 2.667969 2.328125 0 4.660156-.894531 6.4375-2.667969l18.210937-18.210937c3.558594-3.5625 3.558594-9.316406 0-12.878906-3.5625-3.558594-9.324218-3.558594-12.875 0zm0 0"/><path d="m102.832031 384.761719-54.632812 54.632812c-3.558594 3.5625-3.558594 9.316407 0 12.875 1.777343 1.777344 4.105469 2.667969 6.4375 2.667969s4.664062-.890625 6.4375-2.667969l54.636719-54.632812c3.558593-3.5625 3.558593-9.316407 0-12.875-3.5625-3.5625-9.324219-3.5625-12.878907 0zm0 0"/><path d="m193.890625 475.820312-9.105469 9.105469c-3.558594 3.558594-3.558594 9.3125 0 12.875 1.777344 1.773438 4.109375 2.667969 6.4375 2.667969 2.332032 0 4.664063-.894531 6.4375-2.667969l9.105469-9.105469c3.5625-3.5625 3.5625-9.316406 0-12.875-3.558594-3.5625-9.324219-3.5625-12.875 0zm0 0"/><path d="m266.738281 402.972656-45.527343 45.527344c-3.5625 3.5625-3.5625 9.316406 0 12.875 1.773437 1.777344 4.105468 2.667969 6.4375 2.667969 2.328124 0 4.660156-.890625 6.4375-2.667969l45.527343-45.527344c3.5625-3.558594 3.5625-9.316406 0-12.875-3.558593-3.5625-9.324219-3.5625-12.875 0zm0 0"/></svg>