<svg id="Capa_1" enable-background="new 0 0 511.005 511.005" height="512" viewBox="0 0 511.005 511.005" width="512" xmlns="http://www.w3.org/2000/svg"><g><path d="m390.502 361.005v30h-30v30h30v30h30v-30h30v-30h-30v-30z"/><path d="m460.502 281.005v-103.455h50v-31.383l-105.24-146.167-74.722 107.931c-22.754-10.845-48.198-16.926-75.038-16.926-96.495 0-175 78.505-175 175 0 8.813.672 17.631 1.978 26.303l-81.978 113.859v31.383h50v73.455h110v-73.455h50v-.013c14.577 3.874 29.63 5.832 45 5.832 16.879 0 33.462-2.385 49.455-7.092 13.026 43.186 53.169 74.729 100.545 74.729 57.897 0 105-47.103 105-105 0-50.691-36.108-93.107-83.954-102.88 1.574-7.282 2.679-14.667 3.312-22.12h30.642zm-54.759-228.995 68.789 95.54h-44.029v103.455h-.65c-4.497-52.715-32.453-98.838-73.366-127.846zm-150.241 68.995c79.953 0 145 65.047 145 145 0 12.026-1.469 23.898-4.361 35.422-16.986 1.508-32.82 7.075-46.526 15.727-8.044-11.273-18.134-21.016-29.788-28.664l-9.896-6.494c10.48-12.408 16.816-28.424 16.816-45.899 0-39.285-31.96-71.245-71.245-71.245s-71.245 31.96-71.245 71.245c0 17.475 6.335 33.491 16.816 45.899l-9.897 6.494c-15.54 10.198-28.068 23.831-36.795 39.732l-43.864-60.923c-.004-.431-.015-.862-.015-1.293 0-79.954 65.047-145.001 145-145.001zm-41.244 115.091c0-22.742 18.502-41.245 41.245-41.245s41.245 18.503 41.245 41.245-18.502 41.244-41.245 41.244-41.245-18.502-41.245-41.244zm-83.756 171.454v73.455h-50v-73.455h-44.028l69.029-95.873 69.029 95.873zm125 5.818c-15.475 0-30.553-2.389-45-7.11v-.091l-35.809-49.734c5.803-17.567 17.29-32.589 32.942-42.861l18.907-12.407c8.855 3.957 18.65 6.176 28.96 6.176s20.104-2.219 28.96-6.176l18.906 12.407c9.271 6.083 17.193 13.975 23.309 23.149-16.283 18.502-26.175 42.758-26.175 69.285 0 .082.003.163.003.245-14.474 4.722-29.583 7.117-45.003 7.117zm225-7.363c0 41.355-33.645 75-75 75s-75-33.645-75-75 33.645-75 75-75 75 33.644 75 75z"/></g></svg>